HIERARCHY
ROOT Hips
{
  OFFSET 0.00 0.00 0.00
  CHANNELS 6 Xposition Yposition Zposition Zrotation Xrotation Yrotation
  JOINT Spine
  {
    OFFSET 0.00 12.00 0.00
    CHANNELS 3 Zrotation Xrotation Yrotation
    JOINT Chest
    {
      OFFSET 0.00 14.00 0.00
      CHANNELS 3 Zrotation Xrotation Yrotation
      JOINT Neck
      {
        OFFSET 0.00 18.00 0.00
        CHANNELS 3 Zrotation Xrotation Yrotation
        JOINT Head
        {
          OFFSET 0.00 8.00 0.00
          CHANNELS 3 Zrotation Xrotation Yrotation
          End Site
          {
            OFFSET 0.00 10.00 0.00
          }
        }
      }
      JOINT LeftUpperArm
      {
        OFFSET 8.00 14.00 0.00
        CHANNELS 3 Zrotation Xrotation Yrotation
        JOINT LeftForearm
        {
          OFFSET 0.00 -26.00 0.00
          CHANNELS 3 Zrotation Xrotation Yrotation
          JOINT LeftHand
          {
            OFFSET 0.00 -24.00 0.00
            CHANNELS 3 Zrotation Xrotation Yrotation
            End Site
            {
              OFFSET 0.00 -8.00 0.00
            }
          }
        }
      }
      JOINT RightUpperArm
      {
        OFFSET -8.00 14.00 0.00
        CHANNELS 3 Zrotation Xrotation Yrotation
        JOINT RightForearm
        {
          OFFSET 0.00 -26.00 0.00
          CHANNELS 3 Zrotation Xrotation Yrotation
          JOINT RightHand
          {
            OFFSET 0.00 -24.00 0.00
            CHANNELS 3 Zrotation Xrotation Yrotation
            End Site
            {
              OFFSET 0.00 -8.00 0.00
            }
          }
        }
      }
    }
  }
  JOINT LeftThigh
  {
    OFFSET 9.00 0.00 0.00
    CHANNELS 3 Zrotation Xrotation Yrotation
    JOINT LeftShin
    {
      OFFSET 0.00 -42.00 0.00
      CHANNELS 3 Zrotation Xrotation Yrotation
      JOINT LeftFoot
      {
        OFFSET 0.00 -40.00 0.00
        CHANNELS 3 Zrotation Xrotation Yrotation
        End Site
        {
          OFFSET 0.00 -6.00 0.00
        }
      }
    }
  }
  JOINT RightThigh
  {
    OFFSET -9.00 0.00 0.00
    CHANNELS 3 Zrotation Xrotation Yrotation
    JOINT RightShin
    {
      OFFSET 0.00 -42.00 0.00
      CHANNELS 3 Zrotation Xrotation Yrotation
      JOINT RightFoot
      {
        OFFSET 0.00 -40.00 0.00
        CHANNELS 3 Zrotation Xrotation Yrotation
        End Site
        {
          OFFSET 0.00 -6.00 0.00
        }
      }
    }
  }
}

MOTION
Frames: 27
Frame Time: 0.033333
0.0000 81.6000 90.0000 0.0000 0.0000 0.0000 0.0000 0.0000 0.0000 0.0000 1.0000 0.0000 0.0000 0.0000 0.0000 0.0000 0.0000 0.0000 0.0000 -0.0000 0.0000 0.0000 -0.0000 0.0000 0.0000 0.0000 0.0000 0.0000 0.0000 0.0000 0.0000 -0.0000 0.0000 0.0000 0.0000 0.0000 0.0000 -8.2373 0.0000 0.0000 39.9349 0.0000 0.0000 -31.6977 0.0000 0.0000 -30.6822 0.0000 0.0000 39.9349 0.0000 0.0000 -9.2527 0.0000
0.0000 81.5217 91.5000 0.0000 0.0000 0.0000 0.0000 -0.3129 0.0000 0.0000 1.0000 0.0000 0.0000 0.0000 0.0000 0.0000 0.0000 0.0000 0.0000 2.8158 0.0000 0.0000 -0.0000 0.0000 0.0000 0.0000 0.0000 0.0000 -2.8158 0.0000 0.0000 -1.8772 0.0000 0.0000 0.0000 0.0000 0.0000 -10.9730 0.0000 0.0000 45.6833 0.0000 0.0000 -34.7103 0.0000 0.0000 -30.2893 0.0000 0.0000 41.3638 0.0000 0.0000 -11.0745 0.0000
0.0000 81.2944 93.0000 0.0000 0.0000 0.0000 0.0000 -0.6180 0.0000 0.0000 1.0000 0.0000 0.0000 0.0000 0.0000 0.0000 0.0000 0.0000 0.0000 5.5623 0.0000 0.0000 -0.0000 0.0000 0.0000 0.0000 0.0000 0.0000 -5.5623 0.0000 0.0000 -3.7082 0.0000 0.0000 0.0000 0.0000 0.0000 -13.9946 0.0000 0.0000 51.4339 0.0000 0.0000 -37.4394 0.0000 0.0000 -30.1031 0.0000 0.0000 43.2021 0.0000 0.0000 -13.0990 0.0000
0.0000 80.9405 94.5000 0.0000 0.0000 0.0000 0.0000 -0.9080 0.0000 0.0000 1.0000 0.0000 0.0000 0.0000 0.0000 0.0000 0.0000 0.0000 0.0000 8.1718 0.0000 0.0000 -0.0000 0.0000 0.0000 0.0000 0.0000 0.0000 -8.1718 0.0000 0.0000 -5.4479 0.0000 0.0000 0.0000 0.0000 0.0000 -17.2056 0.0000 0.0000 56.9995 0.0000 0.0000 -39.7939 0.0000 0.0000 -30.0554 0.0000 0.0000 45.3260 0.0000 0.0000 -15.2706 0.0000
0.0000 80.4944 96.0000 0.0000 0.0000 0.0000 0.0000 -1.1756 0.0000 0.0000 1.0000 0.0000 0.0000 0.0000 0.0000 0.0000 0.0000 0.0000 0.0000 10.5801 0.0000 0.0000 -0.0000 0.0000 0.0000 0.0000 0.0000 0.0000 -10.5801 0.0000 0.0000 -7.0534 0.0000 0.0000 0.0000 0.0000 0.0000 -20.5226 0.0000 0.0000 62.2131 0.0000 0.0000 -41.6905 0.0000 0.0000 -30.0639 0.0000 0.0000 47.5824 0.0000 0.0000 -17.5185 0.0000
0.0000 80.0000 97.5000 0.0000 0.0000 0.0000 0.0000 -1.4142 0.0000 0.0000 1.0000 0.0000 0.0000 0.0000 0.0000 0.0000 0.0000 0.0000 0.0000 12.7279 0.0000 0.0000 -0.0000 0.0000 0.0000 0.0000 0.0000 0.0000 -12.7279 0.0000 0.0000 -8.4853 0.0000 0.0000 0.0000 0.0000 0.0000 -23.8691 0.0000 0.0000 66.9236 0.0000 0.0000 -43.0545 0.0000 0.0000 -30.0439 0.0000 0.0000 49.8109 0.0000 0.0000 -19.7670 0.0000
0.0000 79.5056 99.0000 0.0000 0.0000 0.0000 0.0000 -1.6180 0.0000 0.0000 1.0000 0.0000 0.0000 0.0000 0.0000 0.0000 0.0000 0.0000 0.0000 14.5623 0.0000 0.0000 -0.0000 0.0000 0.0000 0.0000 0.0000 0.0000 -14.5623 0.0000 0.0000 -9.7082 0.0000 0.0000 0.0000 0.0000 0.0000 -27.1692 0.0000 0.0000 70.9936 0.0000 0.0000 -43.8244 0.0000 0.0000 -29.9172 0.0000 0.0000 51.8604 0.0000 0.0000 -21.9431 0.0000
0.0000 79.0595 100.5000 0.0000 0.0000 0.0000 0.0000 -1.7820 0.0000 0.0000 1.0000 0.0000 0.0000 0.0000 0.0000 0.0000 0.0000 0.0000 0.0000 16.0381 0.0000 0.0000 -0.0000 0.0000 0.0000 0.0000 0.0000 0.0000 -16.0381 0.0000 0.0000 -10.6921 0.0000 0.0000 0.0000 0.0000 0.0000 -30.3435 0.0000 0.0000 74.3015 0.0000 0.0000 -43.9579 0.0000 0.0000 -29.6181 0.0000 0.0000 53.5987 0.0000 0.0000 -23.9806 0.0000
0.0000 78.7056 102.0000 0.0000 0.0000 0.0000 0.0000 -1.9021 0.0000 0.0000 1.0000 0.0000 0.0000 0.0000 0.0000 0.0000 0.0000 0.0000 0.0000 17.1190 0.0000 0.0000 -0.0000 0.0000 0.0000 0.0000 0.0000 0.0000 -17.1190 0.0000 0.0000 -11.4127 0.0000 0.0000 0.0000 0.0000 0.0000 -33.3063 0.0000 0.0000 76.7444 0.0000 0.0000 -43.4381 0.0000 0.0000 -29.0962 0.0000 0.0000 54.9191 0.0000 0.0000 -25.8229 0.0000
0.0000 78.4783 103.5000 0.0000 0.0000 0.0000 0.0000 -1.9754 0.0000 0.0000 1.0000 0.0000 0.0000 0.0000 0.0000 0.0000 0.0000 0.0000 0.0000 17.7784 0.0000 0.0000 -0.0000 0.0000 0.0000 0.0000 0.0000 0.0000 -17.7784 0.0000 0.0000 -11.8523 0.0000 0.0000 0.0000 0.0000 0.0000 -35.9657 0.0000 0.0000 78.2436 0.0000 0.0000 -42.2779 0.0000 0.0000 -28.3182 0.0000 0.0000 55.7432 0.0000 0.0000 -27.4250 0.0000
0.0000 78.4000 105.0000 0.0000 0.0000 0.0000 0.0000 -2.0000 0.0000 0.0000 1.0000 0.0000 0.0000 0.0000 0.0000 0.0000 0.0000 0.0000 0.0000 18.0000 0.0000 0.0000 -0.0000 0.0000 0.0000 0.0000 0.0000 0.0000 -18.0000 0.0000 0.0000 -12.0000 0.0000 0.0000 0.0000 0.0000 0.0000 -38.2278 0.0000 0.0000 78.7490 0.0000 0.0000 -40.5212 0.0000 0.0000 -27.2682 0.0000 0.0000 56.0232 0.0000 0.0000 -28.7550 0.0000
0.0000 78.4783 106.5000 0.0000 0.0000 0.0000 0.0000 -1.9754 0.0000 0.0000 1.0000 0.0000 0.0000 0.0000 0.0000 0.0000 0.0000 0.0000 0.0000 17.7784 0.0000 0.0000 -0.0000 0.0000 0.0000 0.0000 0.0000 0.0000 -17.7784 0.0000 0.0000 -11.8523 0.0000 0.0000 0.0000 0.0000 0.0000 -40.0051 0.0000 0.0000 78.2436 0.0000 0.0000 -38.2385 0.0000 0.0000 -25.9470 0.0000 0.0000 55.7432 0.0000 0.0000 -29.7962 0.0000
0.0000 78.7056 108.0000 0.0000 0.0000 0.0000 0.0000 -1.9021 0.0000 0.0000 1.0000 0.0000 0.0000 0.0000 0.0000 0.0000 0.0000 0.0000 0.0000 17.1190 0.0000 0.0000 -0.0000 0.0000 0.0000 0.0000 0.0000 0.0000 -17.1190 0.0000 0.0000 -11.4127 0.0000 0.0000 0.0000 0.0000 0.0000 -41.2254 0.0000 0.0000 76.7444 0.0000 0.0000 -35.5191 0.0000 0.0000 -24.3706 0.0000 0.0000 54.9191 0.0000 0.0000 -30.5486 0.0000
0.0000 79.0595 109.5000 0.0000 0.0000 0.0000 0.0000 -1.7820 0.0000 0.0000 1.0000 0.0000 0.0000 0.0000 0.0000 0.0000 0.0000 0.0000 0.0000 16.0381 0.0000 0.0000 -0.0000 0.0000 0.0000 0.0000 0.0000 0.0000 -16.0381 0.0000 0.0000 -10.6921 0.0000 0.0000 0.0000 0.0000 0.0000 -41.8405 0.0000 0.0000 74.3015 0.0000 0.0000 -32.4610 0.0000 0.0000 -22.5689 0.0000 0.0000 53.5987 0.0000 0.0000 -31.0298 0.0000
0.0000 79.5056 111.0000 0.0000 0.0000 0.0000 0.0000 -1.6180 0.0000 0.0000 1.0000 0.0000 0.0000 0.0000 0.0000 0.0000 0.0000 0.0000 0.0000 14.5623 0.0000 0.0000 -0.0000 0.0000 0.0000 0.0000 0.0000 0.0000 -14.5623 0.0000 0.0000 -9.7082 0.0000 0.0000 0.0000 0.0000 0.0000 -41.8312 0.0000 0.0000 70.9936 0.0000 0.0000 -29.1623 0.0000 0.0000 -20.5842 0.0000 0.0000 51.8604 0.0000 0.0000 -31.2761 0.0000
0.0000 80.0000 112.5000 0.0000 0.0000 0.0000 0.0000 -1.4142 0.0000 0.0000 1.0000 0.0000 0.0000 0.0000 0.0000 0.0000 0.0000 0.0000 0.0000 12.7279 0.0000 0.0000 -0.0000 0.0000 0.0000 0.0000 0.0000 0.0000 -12.7279 0.0000 0.0000 -8.4853 0.0000 0.0000 0.0000 0.0000 0.0000 -41.2074 0.0000 0.0000 66.9236 0.0000 0.0000 -25.7162 0.0000 0.0000 -18.4694 0.0000 0.0000 49.8109 0.0000 0.0000 -31.3415 0.0000
0.0000 80.4944 114.0000 0.0000 0.0000 0.0000 0.0000 -1.1756 0.0000 0.0000 1.0000 0.0000 0.0000 0.0000 0.0000 0.0000 0.0000 0.0000 0.0000 10.5801 0.0000 0.0000 -0.0000 0.0000 0.0000 0.0000 0.0000 0.0000 -10.5801 0.0000 0.0000 -7.0534 0.0000 0.0000 0.0000 0.0000 0.0000 -40.0042 0.0000 0.0000 62.2131 0.0000 0.0000 -22.2090 0.0000 0.0000 -16.2863 0.0000 0.0000 47.5824 0.0000 0.0000 -31.2960 0.0000
0.0000 80.9405 115.5000 0.0000 0.0000 0.0000 0.0000 -0.9080 0.0000 0.0000 1.0000 0.0000 0.0000 0.0000 0.0000 0.0000 0.0000 0.0000 0.0000 8.1718 0.0000 0.0000 -0.0000 0.0000 0.0000 0.0000 0.0000 0.0000 -8.1718 0.0000 0.0000 -5.4479 0.0000 0.0000 0.0000 0.0000 0.0000 -38.2765 0.0000 0.0000 56.9995 0.0000 0.0000 -18.7230 0.0000 0.0000 -14.1037 0.0000 0.0000 45.3260 0.0000 0.0000 -31.2224 0.0000
0.0000 81.2944 117.0000 0.0000 0.0000 0.0000 0.0000 -0.6180 0.0000 0.0000 1.0000 0.0000 0.0000 0.0000 0.0000 0.0000 0.0000 0.0000 0.0000 5.5623 0.0000 0.0000 -0.0000 0.0000 0.0000 0.0000 0.0000 0.0000 -5.5623 0.0000 0.0000 -3.7082 0.0000 0.0000 0.0000 0.0000 0.0000 -36.0933 0.0000 0.0000 51.4339 0.0000 0.0000 -15.3406 0.0000 0.0000 -11.9924 0.0000 0.0000 43.2021 0.0000 0.0000 -31.2097 0.0000
0.0000 81.5217 118.5000 0.0000 0.0000 0.0000 0.0000 -0.3129 0.0000 0.0000 1.0000 0.0000 0.0000 0.0000 0.0000 0.0000 0.0000 0.0000 0.0000 2.8158 0.0000 0.0000 -0.0000 0.0000 0.0000 0.0000 0.0000 0.0000 -2.8158 0.0000 0.0000 -1.8772 0.0000 0.0000 0.0000 0.0000 0.0000 -33.5331 0.0000 0.0000 45.6833 0.0000 0.0000 -12.1503 0.0000 0.0000 -10.0194 0.0000 0.0000 41.3638 0.0000 0.0000 -31.3444 0.0000
0.0000 81.6000 120.0000 0.0000 0.0000 0.0000 0.0000 -0.0000 0.0000 0.0000 1.0000 0.0000 0.0000 0.0000 0.0000 0.0000 0.0000 0.0000 0.0000 0.0000 0.0000 0.0000 -0.0000 0.0000 0.0000 0.0000 0.0000 0.0000 -0.0000 0.0000 0.0000 -0.0000 0.0000 0.0000 0.0000 0.0000 0.0000 -30.6822 0.0000 0.0000 39.9349 0.0000 0.0000 -9.2527 0.0000 0.0000 -8.2373 0.0000 0.0000 39.9349 0.0000 0.0000 -31.6977 0.0000
0.0000 81.5217 121.5000 0.0000 0.0000 0.0000 0.0000 0.3129 0.0000 0.0000 1.0000 0.0000 0.0000 0.0000 0.0000 0.0000 0.0000 0.0000 0.0000 -2.8158 0.0000 0.0000 -1.8772 0.0000 0.0000 0.0000 0.0000 0.0000 2.8158 0.0000 0.0000 -0.0000 0.0000 0.0000 0.0000 0.0000 0.0000 -30.2893 0.0000 0.0000 41.3638 0.0000 0.0000 -11.0745 0.0000 0.0000 -10.9730 0.0000 0.0000 45.6833 0.0000 0.0000 -34.7103 0.0000
0.0000 81.2944 123.0000 0.0000 0.0000 0.0000 0.0000 0.6180 0.0000 0.0000 1.0000 0.0000 0.0000 0.0000 0.0000 0.0000 0.0000 0.0000 0.0000 -5.5623 0.0000 0.0000 -3.7082 0.0000 0.0000 0.0000 0.0000 0.0000 5.5623 0.0000 0.0000 -0.0000 0.0000 0.0000 0.0000 0.0000 0.0000 -30.1031 0.0000 0.0000 43.2021 0.0000 0.0000 -13.0990 0.0000 0.0000 -13.9946 0.0000 0.0000 51.4339 0.0000 0.0000 -37.4394 0.0000
0.0000 80.9405 124.5000 0.0000 0.0000 0.0000 0.0000 0.9080 0.0000 0.0000 1.0000 0.0000 0.0000 0.0000 0.0000 0.0000 0.0000 0.0000 0.0000 -8.1718 0.0000 0.0000 -5.4479 0.0000 0.0000 0.0000 0.0000 0.0000 8.1718 0.0000 0.0000 -0.0000 0.0000 0.0000 0.0000 0.0000 0.0000 -30.0554 0.0000 0.0000 45.3260 0.0000 0.0000 -15.2706 0.0000 0.0000 -17.2056 0.0000 0.0000 56.9995 0.0000 0.0000 -39.7939 0.0000
0.0000 80.4944 126.0000 0.0000 0.0000 0.0000 0.0000 1.1756 0.0000 0.0000 1.0000 0.0000 0.0000 0.0000 0.0000 0.0000 0.0000 0.0000 0.0000 -10.5801 0.0000 0.0000 -7.0534 0.0000 0.0000 0.0000 0.0000 0.0000 10.5801 0.0000 0.0000 -0.0000 0.0000 0.0000 0.0000 0.0000 0.0000 -30.0639 0.0000 0.0000 47.5824 0.0000 0.0000 -17.5185 0.0000 0.0000 -20.5226 0.0000 0.0000 62.2131 0.0000 0.0000 -41.6905 0.0000
0.0000 80.0000 127.5000 0.0000 0.0000 0.0000 0.0000 1.4142 0.0000 0.0000 1.0000 0.0000 0.0000 0.0000 0.0000 0.0000 0.0000 0.0000 0.0000 -12.7279 0.0000 0.0000 -8.4853 0.0000 0.0000 0.0000 0.0000 0.0000 12.7279 0.0000 0.0000 -0.0000 0.0000 0.0000 0.0000 0.0000 0.0000 -30.0439 0.0000 0.0000 49.8109 0.0000 0.0000 -19.7670 0.0000 0.0000 -23.8691 0.0000 0.0000 66.9236 0.0000 0.0000 -43.0545 0.0000
0.0000 79.5056 129.0000 0.0000 0.0000 0.0000 0.0000 1.6180 0.0000 0.0000 1.0000 0.0000 0.0000 0.0000 0.0000 0.0000 0.0000 0.0000 0.0000 -14.5623 0.0000 0.0000 -9.7082 0.0000 0.0000 0.0000 0.0000 0.0000 14.5623 0.0000 0.0000 -0.0000 0.0000 0.0000 0.0000 0.0000 0.0000 -29.9172 0.0000 0.0000 51.8604 0.0000 0.0000 -21.9431 0.0000 0.0000 -27.1692 0.0000 0.0000 70.9936 0.0000 0.0000 -43.8244 0.0000
